name rise36.2859peak64.2979fall75.1499.mot
datacolumns 19
datarows 35
range 19.81826100000000 19.87492900000000
endheader
time	ground_force1_vx	ground_force1_vy	ground_force1_vz	ground_force1_px	ground_force1_py	ground_force1_pz	ground_force2_vx	ground_force2_vy	ground_force2_vz	ground_force2_px	ground_force2_py	ground_force2_pz	ground_torque1_x	ground_torque1_y	ground_torque1_z	ground_torque2_x	ground_torque2_y	ground_torque2_z	
19.81826100000000	-31.22113200000000	822.07414800000004	54.03944800000000	0.20803600000000	0.00000000000000	0.08703700000000	0.00000000000000	0.00000000000000	0.00000000000000	0.00000000000000	0.00000000000000	0.00000000000000	0.00000000000000	28.70782300000000	0.00000000000000	0.00000000000000	0.00000000000000	0.00000000000000	
19.81992400000000	-31.73193400000000	821.65476300000000	54.14104700000000	0.20692700000000	0.00000000000000	0.08702000000000	0.00000000000000	0.00000000000000	0.00000000000000	0.00000000000000	0.00000000000000	0.00000000000000	0.00000000000000	28.64750800000000	0.00000000000000	0.00000000000000	0.00000000000000	0.00000000000000	
19.82158900000000	-32.25536100000000	821.10944800000004	54.22882400000000	0.20581100000000	0.00000000000000	0.08700200000000	0.00000000000000	0.00000000000000	0.00000000000000	0.00000000000000	0.00000000000000	0.00000000000000	0.00000000000000	28.58341600000000	0.00000000000000	0.00000000000000	0.00000000000000	0.00000000000000	
19.82325400000000	-32.79179600000000	820.43541500000003	54.30190100000000	0.20468900000000	0.00000000000000	0.08698300000000	0.00000000000000	0.00000000000000	0.00000000000000	0.00000000000000	0.00000000000000	0.00000000000000	0.00000000000000	28.51549000000000	0.00000000000000	0.00000000000000	0.00000000000000	0.00000000000000	
19.82492800000000	-33.34156800000000	819.62991000000000	54.35941200000000	0.20356100000000	0.00000000000000	0.08696300000000	0.00000000000000	0.00000000000000	0.00000000000000	0.00000000000000	0.00000000000000	0.00000000000000	0.00000000000000	28.44367500000000	0.00000000000000	0.00000000000000	0.00000000000000	0.00000000000000	
19.82658900000000	-33.90494600000000	818.69021299999997	54.40050400000000	0.20242600000000	0.00000000000000	0.08694300000000	0.00000000000000	0.00000000000000	0.00000000000000	0.00000000000000	0.00000000000000	0.00000000000000	0.00000000000000	28.36791600000000	0.00000000000000	0.00000000000000	0.00000000000000	0.00000000000000	
19.82825800000000	-34.48213600000000	817.61363400000005	54.42434100000000	0.20128400000000	0.00000000000000	0.08692100000000	0.00000000000000	0.00000000000000	0.00000000000000	0.00000000000000	0.00000000000000	0.00000000000000	0.00000000000000	28.28816000000000	0.00000000000000	0.00000000000000	0.00000000000000	0.00000000000000	
19.82992200000000	-35.07328100000000	816.39751600000000	54.43010500000000	0.20013500000000	0.00000000000000	0.08689900000000	0.00000000000000	0.00000000000000	0.00000000000000	0.00000000000000	0.00000000000000	0.00000000000000	0.00000000000000	28.20435400000000	0.00000000000000	0.00000000000000	0.00000000000000	0.00000000000000	
19.83158900000000	-35.67845400000000	815.03923199999997	54.41700400000000	0.19898000000000	0.00000000000000	0.08687500000000	0.00000000000000	0.00000000000000	0.00000000000000	0.00000000000000	0.00000000000000	0.00000000000000	0.00000000000000	28.11644500000000	0.00000000000000	0.00000000000000	0.00000000000000	0.00000000000000	
19.83326200000000	-36.29765800000000	813.53618300000005	54.38427000000000	0.19781800000000	0.00000000000000	0.08685100000000	-1.23792700000000	3.60392600000000	0.13662200000000	0.00000000000000	0.00000000000000	0.00000000000000	0.00000000000000	28.02438500000000	0.00000000000000	0.00000000000000	-0.03791000000000	0.00000000000000	
19.83492800000000	-36.93082100000000	811.88580100000001	54.33116500000000	0.19665000000000	0.00000000000000	0.08682500000000	-1.97152300000000	7.31456500000000	0.21668200000000	0.00000000000000	0.00000000000000	0.00000000000000	0.00000000000000	27.92812400000000	0.00000000000000	0.00000000000000	-0.05936900000000	0.00000000000000	
19.83659200000000	-37.57779600000000	810.08554600000002	54.25698000000000	0.19547500000000	0.00000000000000	0.08679800000000	-2.79880700000000	11.84865800000000	0.30649300000000	0.00000000000000	0.00000000000000	0.00000000000000	0.00000000000000	27.82761500000000	0.00000000000000	0.00000000000000	-0.08337100000000	0.00000000000000	
19.83825500000000	-38.23835600000000	808.13291100000004	54.16104500000000	0.19429500000000	0.00000000000000	0.08677000000000	-3.69380800000000	17.17219000000000	0.40300300000000	0.00000000000000	0.00000000000000	0.00000000000000	0.00000000000000	27.72281500000000	0.00000000000000	0.00000000000000	-0.10911000000000	0.00000000000000	
19.83992100000000	-38.91219300000000	806.02541599999995	54.04272400000000	0.19310900000000	0.00000000000000	0.08674100000000	-4.62422600000000	23.21639700000000	0.50243300000000	0.00000000000000	0.00000000000000	0.00000000000000	0.00000000000000	27.61367800000000	0.00000000000000	0.00000000000000	-0.13560500000000	0.00000000000000	
19.84159100000000	-39.59892100000000	803.76061700000002	53.90142400000000	0.19191700000000	0.00000000000000	0.08671000000000	-5.55352100000000	29.88312900000000	0.60050600000000	0.36861800000000	0.00000000000000	-0.10433900000000	0.00000000000000	27.50016700000000	0.00000000000000	0.00000000000000	-0.51984800000000	0.00000000000000	
19.84326300000000	-40.29806500000000	801.33610099999999	53.73659400000000	0.19072100000000	0.00000000000000	0.08667800000000	-6.44353400000000	37.05332000000000	0.69272900000000	0.37421500000000	0.00000000000000	-0.10435100000000	0.00000000000000	27.38224100000000	0.00000000000000	0.00000000000000	-0.59959500000000	0.00000000000000	
19.84492200000000	-41.00907000000000	798.74949400000003	53.54772700000000	0.18952000000000	0.00000000000000	0.08664400000000	-7.25731400000000	44.59742500000000	0.77471400000000	0.37912900000000	0.00000000000000	-0.10435200000000	0.00000000000000	27.25986500000000	0.00000000000000	0.00000000000000	-0.67216700000000	0.00000000000000	
19.84658700000000	-41.73129400000000	795.99845900000003	53.33436700000000	0.18831500000000	0.00000000000000	0.08660900000000	-7.96177100000000	52.38633000000000	0.84246500000000	0.38348700000000	0.00000000000000	-0.10434500000000	0.00000000000000	27.13300500000000	0.00000000000000	0.00000000000000	-0.73490600000000	0.00000000000000	
19.84825800000000	-42.46401000000000	793.08070299999997	53.09610500000000	0.18710800000000	0.00000000000000	0.08657200000000	-8.52980700000000	60.30126500000000	0.89261600000000	0.38738700000000	0.00000000000000	-0.10433200000000	0.00000000000000	27.00162900000000	0.00000000000000	0.00000000000000	-0.78575200000000	0.00000000000000	
19.84992500000000	-43.20640400000000	789.99397699999997	52.83258500000000	0.18589700000000	0.00000000000000	0.08653400000000	-8.94172800000000	68.24166000000000	0.92259400000000	0.39090600000000	0.00000000000000	-0.10431500000000	0.00000000000000	26.86571000000000	0.00000000000000	0.00000000000000	-0.82335800000000	0.00000000000000	
19.85159200000000	-43.95757800000000	786.73608200000001	52.54350700000000	0.18468500000000	0.00000000000000	0.08649300000000	-9.18586400000000	76.13037400000000	0.93068900000000	0.39410400000000	0.00000000000000	-0.10429400000000	0.00000000000000	26.72522000000000	0.00000000000000	0.00000000000000	-0.84712700000000	0.00000000000000	
19.85325800000000	-44.71655000000000	783.30487400000004	52.22862500000000	0.18347100000000	0.00000000000000	0.08645100000000	-9.25844500000000	83.91617100000001	0.91604500000000	0.39703100000000	0.00000000000000	-0.10427100000000	0.00000000000000	26.58013300000000	0.00000000000000	0.00000000000000	-0.85718200000000	0.00000000000000	
19.85492900000000	-45.48225100000000	779.69826799999998	51.88775200000000	0.18225700000000	0.00000000000000	0.08640800000000	-9.16285600000000	91.57364900000000	0.87858400000000	0.39972400000000	0.00000000000000	-0.10424500000000	0.00000000000000	26.43042900000000	0.00000000000000	0.00000000000000	-0.85429200000000	0.00000000000000	
19.85659500000000	-46.25353400000000	775.91424500000005	51.52075700000000	0.18104400000000	0.00000000000000	0.08636200000000	-8.90843000000000	99.10105600000000	0.81887900000000	0.40221700000000	0.00000000000000	-0.10421900000000	0.00000000000000	26.27608600000000	0.00000000000000	0.00000000000000	-0.83974800000000	0.00000000000000	
19.85825700000000	-47.02916600000000	771.95085800000004	51.12757200000000	0.17983200000000	0.00000000000000	0.08631400000000	-8.50896300000000	106.51653000000000	0.73799500000000	0.40453700000000	0.00000000000000	-0.10419100000000	0.00000000000000	26.11708500000000	0.00000000000000	0.00000000000000	-0.81522200000000	0.00000000000000	
19.85992500000000	-47.80784100000000	767.80623900000001	50.70819100000000	0.17862200000000	0.00000000000000	0.08626400000000	-7.98112100000000	113.85336100000001	0.63731300000000	0.40670600000000	0.00000000000000	-0.10416200000000	0.00000000000000	25.95340900000000	0.00000000000000	0.00000000000000	-0.78262200000000	0.00000000000000	
19.86158900000000	-48.58817100000000	763.47860900000001	50.26266700000000	0.17741600000000	0.00000000000000	0.08621300000000	-7.34288700000000	121.15483100000000	0.51836700000000	0.40874200000000	0.00000000000000	-0.10413300000000	0.00000000000000	25.78504200000000	0.00000000000000	0.00000000000000	-0.74395400000000	0.00000000000000	
19.86325800000000	-49.36869800000000	758.96628599999997	49.79111700000000	0.17621400000000	0.00000000000000	0.08615900000000	-6.61217100000000	128.46912399999999	0.38269100000000	0.41066200000000	0.00000000000000	-0.10410300000000	0.00000000000000	25.61196900000000	0.00000000000000	0.00000000000000	-0.70119100000000	0.00000000000000	
19.86492200000000	-50.14789200000000	754.26769400000001	49.29372300000000	0.17501800000000	0.00000000000000	0.08610200000000	-5.80566300000000	135.84471400000001	0.23169200000000	0.41247900000000	0.00000000000000	-0.10407400000000	0.00000000000000	25.43417700000000	0.00000000000000	0.00000000000000	-0.65618200000000	0.00000000000000	
19.86658700000000	-50.92415600000000	749.38137800000004	48.77072800000000	0.17382800000000	0.00000000000000	0.08604400000000	-4.93797900000000	143.32648699999999	0.06655900000000	0.41420500000000	0.00000000000000	-0.10404400000000	0.00000000000000	25.25165300000000	0.00000000000000	0.00000000000000	-0.61057300000000	0.00000000000000	
19.86825900000000	-51.69583100000000	744.30601000000001	48.22243900000000	0.17264600000000	0.00000000000000	0.08598300000000	-4.02111300000000	150.95279500000001	-0.11179900000000	0.41585000000000	0.00000000000000	-0.10401400000000	0.00000000000000	25.06438400000000	0.00000000000000	0.00000000000000	-0.56576700000000	0.00000000000000	
19.86992700000000	-52.46119500000000	739.04040699999996	47.64922600000000	0.17147300000000	0.00000000000000	0.08592000000000	-3.06418500000000	158.75348299999999	-0.30277900000000	0.41742100000000	0.00000000000000	-0.10398400000000	0.00000000000000	24.87235700000000	0.00000000000000	0.00000000000000	-0.52290200000000	0.00000000000000	
19.87158700000000	-53.21847600000000	733.58354299999996	47.05152100000000	0.17031000000000	0.00000000000000	0.08585400000000	-2.07345100000000	166.74887699999999	-0.50608800000000	0.41892600000000	0.00000000000000	-0.10395500000000	0.00000000000000	24.67555900000000	0.00000000000000	0.00000000000000	-0.48285800000000	0.00000000000000	
19.87325500000000	-53.96584700000000	727.93456200000003	46.42982000000000	0.16915900000000	0.00000000000000	0.08578600000000	-1.05252800000000	174.94961799999999	-0.72171200000000	0.42037300000000	0.00000000000000	-0.10392500000000	0.00000000000000	24.47397800000000	0.00000000000000	0.00000000000000	-0.44628000000000	0.00000000000000	
19.87492900000000	-54.70143700000000	722.09279100000003	45.78467600000000	0.16802000000000	0.00000000000000	0.08571500000000	-0.00277200000000	183.35722899999999	-0.94988100000000	0.42176500000000	0.00000000000000	-0.10389600000000	0.00000000000000	24.26760000000000	0.00000000000000	0.00000000000000	-0.41361300000000	0.00000000000000	
